PathFileType	4	(X/Y/Z)	TVC_32_BWA_08_walk_RCNL2025.trc
DataRate	CameraRate	NumFrames	NumMarkers	Units	OrigDataRate	OrigDataStartFrame	OrigNumFrames
100	100	9	27	mm	100	328	436
Frame#	Time	R_Shoulder			L_Shoulder			C7			J_Notch			R_Elbow			L_Elbow			R_Wrist			L_Wrist			R_Asis			L_Asis			R_Psis			L_Psis			Sacral			Thoracic			Sternum			R_Thigh_Lateral			R_Knee_Lateral			R_Shank_Lateral			R_Ankle_Lateral			R_Heel			R_Toe			L_Thigh_Lateral			L_Knee_Lateral			L_Shank_Lateral			L_Ankle_Lateral			L_Heel			L_Toe		
		X1	Y1	Z1	X2	Y2	Z2	X3	Y3	Z3	X4	Y4	Z4	X5	Y5	Z5	X6	Y6	Z6	X7	Y7	Z7	X8	Y8	Z8	X9	Y9	Z9	X10	Y10	Z10	X11	Y11	Z11	X12	Y12	Z12	X13	Y13	Z13	X14	Y14	Z14	X15	Y15	Z15	X16	Y16	Z16	X17	Y17	Z17	X18	Y18	Z18	X19	Y19	Z19	X20	Y20	Z20	X21	Y21	Z21	X22	Y22	Z22	X23	Y23	Z23	X24	Y24	Z24	X25	Y25	Z25	X26	Y26	Z26	X27	Y27	Z27
328	3.27000000	368.894653	1454.851562	498.932983	292.445343	1437.681885	127.909325	274.657715	1502.822388	324.089386	434.245544	1401.915039	306.755554	469.859222	1132.788086	632.339233	180.848938	1122.382202	46.318962	627.485840	913.253998	573.711975	227.118835	851.934265	64.179861	364.269836	1001.427490	472.079529	361.701813	1013.034302	184.499985	173.925827	1009.748596	382.191528	175.806335	1004.487610	280.622711	174.866081	1007.118103	331.407120	195.421829	1245.841553	336.316467	452.621368	1255.939819	308.761505	253.179489	618.714050	508.026459	272.312775	483.583923	435.458801	189.907593	286.290161	479.374542	144.451675	78.988739	391.898193	84.281425	56.289082	329.351746	284.333252	41.064671	386.280853	425.048798	692.898804	93.356621	523.539490	549.472534	142.900833	530.086365	387.343475	77.274139	641.138672	124.339767	128.484085	581.028381	91.751030	180.786835	784.339233	131.886520	154.667725
329	3.28000000	375.021240	1453.327881	497.785522	298.456573	1435.891235	126.804588	280.833130	1501.075684	322.860504	440.698883	1400.669067	305.545532	478.761047	1132.229614	630.944092	185.183929	1120.921387	46.972874	639.186890	914.839081	571.763611	229.836884	850.299866	66.691149	371.728638	1000.075500	471.645447	370.505829	1011.176941	183.881622	181.775696	1007.658020	380.813263	184.233780	1002.218689	279.295471	183.004738	1004.938354	330.054367	202.530243	1243.757935	334.857605	459.588806	1254.756226	307.840424	259.292450	617.551819	507.858795	277.737946	482.175842	435.350220	193.329971	285.734589	479.164124	144.863953	79.130455	391.773407	84.366463	56.880680	329.313751	284.319641	41.010109	386.159760	434.404083	690.385315	94.356689	532.154907	547.113953	144.711044	540.257690	385.187805	78.727798	651.324341	122.571136	130.441437	590.919128	89.481804	182.133011	794.236633	130.835983	157.764145
330	3.29000000	381.154480	1451.879883	496.557617	304.568573	1434.076416	125.621765	287.078125	1499.323486	321.519440	447.258667	1399.472778	304.271118	487.525787	1131.723145	629.543945	189.749527	1119.418457	47.558910	650.624176	916.453217	569.766052	232.880562	848.655975	69.108591	379.274628	998.695251	471.207397	379.543213	1009.273193	183.302887	189.759888	1005.637695	379.340729	192.832321	1000.032043	277.866486	191.296104	1002.834869	328.603607	209.803329	1241.651367	333.312561	466.712585	1253.625122	306.889709	265.278229	616.418335	507.641693	283.056671	480.777222	435.244141	196.661072	285.219086	478.951874	145.270447	79.316139	391.670013	84.448906	57.554588	329.291626	284.294495	40.953896	386.051758	443.899902	687.915710	95.226318	540.498596	544.535767	146.326981	549.883301	382.803833	80.031540	660.215759	120.314751	132.348740	599.427673	86.880829	183.371292	802.834473	128.957153	160.884506
331	3.30000000	387.308929	1450.526855	495.246857	310.802124	1432.248657	124.358261	293.405457	1497.579834	320.064819	453.936279	1398.337280	302.933289	496.152039	1131.279419	628.146606	194.560760	1117.885254	48.068737	661.790985	918.097351	567.731720	236.259071	847.009857	71.412580	386.912964	997.302368	470.757446	388.805573	1007.339050	182.758957	197.880402	1003.707458	377.771454	201.596527	997.947937	276.333435	199.738464	1000.827698	327.052444	217.247314	1239.539673	331.682983	474.000916	1252.558594	305.909576	271.143890	615.333191	507.368164	288.264038	479.408264	435.134644	199.895218	284.762543	478.740234	145.672958	79.561890	391.592010	84.531937	58.324905	329.288910	284.260193	40.898338	385.958923	453.457062	685.483032	95.955917	548.519470	541.741882	147.741608	558.889709	380.179291	81.197998	667.873474	117.590477	134.192520	606.625122	83.978668	184.505219	810.202148	126.259941	164.005661
332	3.31000000	393.501221	1449.287720	493.851837	317.179199	1430.420898	123.011574	299.829071	1495.860962	318.496613	460.743347	1397.273682	301.533691	504.638641	1130.907715	626.758667	199.633621	1116.334839	48.492855	672.680603	919.770142	565.672821	239.982231	845.370056	73.583942	394.651794	995.913025	470.283112	398.279144	1005.393982	182.238907	206.139023	1001.885986	376.105164	210.518707	995.986023	274.696686	208.328865	998.936005	325.400925	224.867096	1237.442871	329.971771	481.460846	1251.569214	304.899261	276.905121	614.315796	507.033112	293.363708	478.090088	435.015564	203.033691	284.385315	478.533508	146.074173	79.886238	391.545990	84.618690	59.207996	329.312714	284.220276	40.845940	385.883179	462.986084	683.075500	96.541634	556.171204	538.743713	148.956406	567.213196	377.314087	82.243057	674.377625	114.440468	135.954865	612.605530	80.827255	185.539825	816.427307	122.772644	167.085175
333	3.32000000	399.750122	1448.181274	492.372284	323.721741	1428.608032	121.579567	306.364044	1494.185425	316.816406	467.691193	1396.293457	300.074249	512.984741	1130.616455	625.385132	204.985229	1114.781616	48.820686	683.286011	921.467773	563.601440	244.060753	843.746826	75.603853	402.501587	994.543945	469.768036	407.944885	1003.461182	181.726288	214.536972	1000.190918	374.344116	219.588959	994.165466	272.959290	217.062965	997.178192	323.651703	232.666077	1235.383301	328.183289	489.097534	1250.670288	303.856812	282.584900	613.385559	506.633270	298.367981	476.844238	434.880981	206.084824	284.109100	478.338043	146.477753	80.309799	391.541534	84.712425	60.222691	329.373932	284.179626	40.799095	385.826599	472.392395	680.680298	96.983612	563.415283	535.562561	149.979828	574.808105	374.222961	83.183357	679.828186	110.928391	137.614944	617.485352	77.498604	186.481537	821.616455	118.542931	170.064453
334	3.33000000	406.076202	1447.225952	490.808899	330.450287	1426.827759	120.060776	313.026093	1492.574707	315.027252	474.790771	1395.409180	298.556702	521.190002	1130.413208	624.029053	210.633835	1113.242065	49.040768	693.599762	923.183777	561.529236	248.506470	842.152191	77.453720	410.474304	993.212585	469.193542	417.778778	1001.567932	181.200272	223.074554	998.638672	372.493378	228.795166	992.505676	271.127289	225.934860	995.572174	321.810333	240.645905	1233.386230	326.323883	496.914337	1249.875488	302.778717	288.212189	612.561584	506.167572	303.297729	475.692322	434.725922	209.063889	283.957001	478.162018	146.888809	80.855034	391.590759	84.816895	61.390530	329.487213	284.144531	40.759659	385.791229	481.581573	678.287537	97.284157	570.223633	532.230835	150.825272	581.653564	370.937073	84.034012	684.343811	107.137131	139.150986	621.400452	74.081779	187.337845	825.893127	113.638374	172.874146
335	3.34000000	412.501617	1446.440552	489.163086	337.382843	1425.100342	118.454567	319.831177	1491.052856	313.133636	482.052094	1394.634644	296.982452	529.254761	1130.304565	622.690857	216.598389	1111.733887	49.141022	703.613800	924.908722	559.467804	253.332481	840.600128	79.115080	418.582489	991.937378	468.539703	427.752502	999.745239	180.636917	231.750732	997.245239	370.561127	238.123077	991.026062	269.209808	234.936905	994.135651	319.885468	248.806244	1231.479370	324.402039	504.912292	1249.199219	301.660217	293.820648	611.862610	505.636841	308.182220	474.655365	434.547272	211.992752	283.953369	478.015289	147.314346	81.545860	391.707916	84.937225	62.736031	329.669952	284.122620	40.728508	385.779236	490.465271	675.894226	97.446060	576.581177	528.792847	151.508987	587.757812	367.504211	84.806747	688.058411	103.164932	140.542236	624.501465	70.677879	188.116699	829.394287	108.146568	175.441071
336	3.35000000	419.049652	1445.843506	487.436798	344.533844	1423.449463	116.761353	326.795135	1489.646484	311.141083	489.483978	1393.984863	295.352142	537.179932	1130.297363	621.368347	222.898010	1110.276855	49.109070	713.319092	926.630157	557.428192	258.553314	839.106873	80.569559	426.838074	990.738098	467.786957	437.833862	998.028137	180.010712	240.562668	996.026123	368.558746	247.556412	989.747009	267.218781	244.059540	992.886566	317.888763	257.144470	1229.693359	322.428497	513.090210	1248.656982	300.495209	299.447296	611.306824	505.043823	313.059052	473.753326	434.344604	214.899292	284.123596	477.908966	147.763931	82.407387	391.908081	85.081078	64.286957	329.940918	284.122528	40.705067	385.792603	498.966461	673.506592	97.471489	582.487061	525.304260	152.048218	593.159363	363.987366	85.508545	691.115295	99.120110	141.771225	626.946777	67.393410	188.825790	832.264832	102.174393	177.695984
